<?xml version="1.0" encoding="utf-8"?>
<!-- Generator: Adobe Illustrator 16.0.0, SVG Export Plug-In . SVG Version: 6.00 Build 0)  -->
<!DOCTYPE svg PUBLIC "-//W3C//DTD SVG 1.1//EN" "http://www.w3.org/Graphics/SVG/1.1/DTD/svg11.dtd">
<svg version="1.1" id="Layer_1" xmlns="http://www.w3.org/2000/svg" xmlns:xlink="http://www.w3.org/1999/xlink" x="0px" y="0px"
	 width="800px" height="800px" viewBox="0 0 800 800" enable-background="new 0 0 800 800" xml:space="preserve">
<g>
	<g>
		<polyline fill="#FFFFFF" points="385.524,86.011 99,381.087 99,432.229 385,727.243 671,433.173 671,379.191 385.524,86.011 		"/>
		<g>
			<path d="M671.805,433.173L451.584,658.577v-65.349L638.58,407.604v-1.896L451.584,220.084v-65.348l220.221,224.456V433.173z"/>
		</g>
		<g>
			<path d="M98.781,381.087l220.222-226.351v65.348L133.429,405.709v1.896l185.574,185.624v65.349L98.781,432.229V381.087z"/>
		</g>
	</g>
	<g>
		<g>
			<path fill="#3FA9F5" d="M273.108,420.582C389.989,235.444,499.886,165.19,583.625,180.105
				c51.149,57.433,113.898,100.195,195.337,132.746c-105.754-9.914-176.947-89.075-316.88,107.731
				C403.862,420.582,377.198,420.582,273.108,420.582z"/>
			<path fill="#FFFFFF" d="M332.557,420.582c124.391-215.665,270.694-220.929,306.295-189.284
				c19.021,15.232,34.094,26.267,56.172,38.979c-122.317-64.572-234.596,48.59-293.522,150.305
				C378.471,420.582,366.941,420.582,332.557,420.582z"/>
		</g>
		<rect x="242.5" y="399.5" fill="#3FA9F5" stroke="#3FA9F5" stroke-miterlimit="10" width="285" height="26"/>
	</g>
</g>
</svg>
